<svg xmlns="http://www.w3.org/2000/svg" width="1440" height="900"><path d="M839,499L1115,526L923,328Z" fill="#7f7f7f" stroke="#7f7f7f" stroke-width="1.51"/><path d="M1115,526L1151,261L923,328Z" fill="#828282" stroke="#828282" stroke-width="1.51"/><path d="M1115,526L1212,255L1151,261Z" fill="#797979" stroke="#797979" stroke-width="1.51"/><path d="M1115,526L1321,554L1212,255Z" fill="#616161" stroke="#616161" stroke-width="1.51"/><path d="M1209,733L1321,554L1115,526Z" fill="#4b4b4b" stroke="#4b4b4b" stroke-width="1.51"/><path d="M1041,822L1209,733L1115,526Z" fill="#484848" stroke="#484848" stroke-width="1.51"/><path d="M839,499L1041,822L1115,526Z" fill="#626262" stroke="#626262" stroke-width="1.51"/><path d="M839,499L754,824L1041,822Z" fill="#5b5b5b" stroke="#5b5b5b" stroke-width="1.51"/><path d="M586,244L619,595L839,499Z" fill="#9a9a9a" stroke="#9a9a9a" stroke-width="1.51"/><path d="M1212,255L1100,61L1151,261Z" fill="#8b8b8b" stroke="#8b8b8b" stroke-width="1.51"/><path d="M1151,261L1100,61L923,328Z" fill="#969696" stroke="#969696" stroke-width="1.51"/><path d="M923,328L586,244L839,499Z" fill="#a0a0a0" stroke="#a0a0a0" stroke-width="1.51"/><path d="M619,595L754,824L839,499Z" fill="#777777" stroke="#777777" stroke-width="1.51"/><path d="M790,32L586,244L923,328Z" fill="#b5b5b5" stroke="#b5b5b5" stroke-width="1.51"/><path d="M1212,255L1300,133L1100,61Z" fill="#878787" stroke="#878787" stroke-width="1.51"/><path d="M1455,196L1300,133L1212,255Z" fill="#757575" stroke="#757575" stroke-width="1.51"/><path d="M1100,61L790,32L923,328Z" fill="#a9a9a9" stroke="#a9a9a9" stroke-width="1.51"/><path d="M1321,554L1454,493L1212,255Z" fill="#565656" stroke="#565656" stroke-width="1.51"/><path d="M1414,750L1454,493L1321,554Z" fill="#393939" stroke="#393939" stroke-width="1.51"/><path d="M395,532L615,789L619,595Z" fill="#8a8a8a" stroke="#8a8a8a" stroke-width="1.51"/><path d="M619,595L615,789L754,824Z" fill="#6b6b6b" stroke="#6b6b6b" stroke-width="1.51"/><path d="M1041,822L1052,977L1209,733Z" fill="#303030" stroke="#303030" stroke-width="1.51"/><path d="M1209,733L1414,750L1321,554Z" fill="#353535" stroke="#353535" stroke-width="1.51"/><path d="M914,1003L1052,977L1041,822Z" fill="#313131" stroke="#313131" stroke-width="1.51"/><path d="M914,1003L1041,822L754,824Z" fill="#3c3c3c" stroke="#3c3c3c" stroke-width="1.51"/><path d="M1339,947L1414,750L1209,733Z" fill="#1d1d1d" stroke="#1d1d1d" stroke-width="1.51"/><path d="M1454,493L1455,196L1212,255Z" fill="#636363" stroke="#636363" stroke-width="1.51"/><path d="M641,940L914,1003L754,824Z" fill="#454545" stroke="#454545" stroke-width="1.51"/><path d="M586,244L445,282L619,595Z" fill="#b5b5b5" stroke="#b5b5b5" stroke-width="1.51"/><path d="M534,59L445,282L586,244Z" fill="#cfcfcf" stroke="#cfcfcf" stroke-width="1.51"/><path d="M1100,61L993,-109L790,32Z" fill="#b0b0b0" stroke="#b0b0b0" stroke-width="1.51"/><path d="M1355,-20L993,-109L1100,61Z" fill="#9a9a9a" stroke="#9a9a9a" stroke-width="1.51"/><path d="M1355,-20L1100,61L1300,133Z" fill="#878787" stroke="#878787" stroke-width="1.51"/><path d="M615,789L641,940L754,824Z" fill="#555555" stroke="#555555" stroke-width="1.51"/><path d="M411,855L641,940L615,789Z" fill="#5f5f5f" stroke="#5f5f5f" stroke-width="1.51"/><path d="M445,282L395,532L619,595Z" fill="#aaaaaa" stroke="#aaaaaa" stroke-width="1.51"/><path d="M1454,493L1565,341L1455,196Z" fill="#595959" stroke="#595959" stroke-width="1.51"/><path d="M1709,556L1565,341L1454,493Z" fill="#474747" stroke="#474747" stroke-width="1.51"/><path d="M1471,1015L1339,947L1417,1281Z" fill="#040504" stroke="#040504" stroke-width="1.51"/><path d="M1052,977L1339,947L1209,733Z" fill="#1f1f1f" stroke="#1f1f1f" stroke-width="1.51"/><path d="M790,32L534,59L586,244Z" fill="#cbcbcb" stroke="#cbcbcb" stroke-width="1.51"/><path d="M634,-151L534,59L790,32Z" fill="#d1d1d1" stroke="#d1d1d1" stroke-width="1.51"/><path d="M1455,196L1355,-20L1300,133Z" fill="#787878" stroke="#787878" stroke-width="1.51"/><path d="M1647,-49L1355,-20L1455,196Z" fill="#747474" stroke="#747474" stroke-width="1.51"/><path d="M993,-109L866,-137L790,32Z" fill="#b8b8b8" stroke="#b8b8b8" stroke-width="1.51"/><path d="M445,282L227,313L395,532Z" fill="#c5c5c5" stroke="#c5c5c5" stroke-width="1.51"/><path d="M534,59L378,125L445,282Z" fill="#d9d9d9" stroke="#d9d9d9" stroke-width="1.51"/><path d="M339,-111L378,125L534,59Z" fill="#e6e6e6" stroke="#e6e6e6" stroke-width="1.51"/><path d="M395,532L411,855L615,789Z" fill="#7f7f7f" stroke="#7f7f7f" stroke-width="1.51"/><path d="M866,-137L634,-151L790,32Z" fill="#c4c4c4" stroke="#c4c4c4" stroke-width="1.51"/><path d="M1565,341L1681,149L1455,196Z" fill="#666666" stroke="#666666" stroke-width="1.51"/><path d="M1414,750L1709,556L1454,493Z" fill="#353535" stroke="#353535" stroke-width="1.51"/><path d="M1743,733L1709,556L1414,750Z" fill="#2a2a2a" stroke="#2a2a2a" stroke-width="1.51"/><path d="M1339,947L1471,1015L1414,750Z" fill="#050505" stroke="#050505" stroke-width="1.51"/><path d="M1099,1273L1339,947L1052,977Z" fill="#212121" stroke="#212121" stroke-width="1.51"/><path d="M866,-137L843,-287L634,-151Z" fill="#c3c3c3" stroke="#c3c3c3" stroke-width="1.51"/><path d="M993,-109L843,-287L866,-137Z" fill="#b6b6b6" stroke="#b6b6b6" stroke-width="1.51"/><path d="M1056,-322L843,-287L993,-109Z" fill="#b0b0b0" stroke="#b0b0b0" stroke-width="1.51"/><path d="M914,1003L1099,1273L1052,977Z" fill="#2f2f2f" stroke="#2f2f2f" stroke-width="1.51"/><path d="M641,940L759,1193L914,1003Z" fill="#454545" stroke="#454545" stroke-width="1.51"/><path d="M461,1201L759,1193L641,940Z" fill="#525252" stroke="#525252" stroke-width="1.51"/><path d="M1286,-353L1056,-322L993,-109Z" fill="#a0a0a0" stroke="#a0a0a0" stroke-width="1.51"/><path d="M1761,352L1681,149L1565,341Z" fill="#606060" stroke="#606060" stroke-width="1.51"/><path d="M378,125L227,313L445,282Z" fill="#d7d7d7" stroke="#d7d7d7" stroke-width="1.51"/><path d="M395,532L223,693L411,855Z" fill="#8f8f8f" stroke="#8f8f8f" stroke-width="1.51"/><path d="M1709,556L1761,352L1565,341Z" fill="#4e4e4e" stroke="#4e4e4e" stroke-width="1.51"/><path d="M1286,-353L993,-109L1355,-20Z" fill="#919191" stroke="#919191" stroke-width="1.51"/><path d="M411,855L369,1067L641,940Z" fill="#5f5f5f" stroke="#5f5f5f" stroke-width="1.51"/><path d="M78,579L223,693L395,532Z" fill="#a6a6a6" stroke="#a6a6a6" stroke-width="1.51"/><path d="M1471,1015L1743,733L1414,750Z" fill="#0f0f0f" stroke="#0f0f0f" stroke-width="1.51"/><path d="M1709,556L1743,733L1761,352Z" fill="#3c3c3c" stroke="#3c3c3c" stroke-width="1.51"/><path d="M759,1193L1099,1273L914,1003Z" fill="#373737" stroke="#373737" stroke-width="1.51"/><path d="M1681,149L1647,-49L1455,196Z" fill="#717171" stroke="#717171" stroke-width="1.51"/><path d="M1701,-374L1647,-49L1681,149Z" fill="#777777" stroke="#777777" stroke-width="1.51"/><path d="M1647,-49L1551,-163L1355,-20Z" fill="#777777" stroke="#777777" stroke-width="1.51"/><path d="M241,926L369,1067L411,855Z" fill="#676767" stroke="#676767" stroke-width="1.51"/><path d="M433,-392L339,-111L634,-151Z" fill="#e3e3e3" stroke="#e3e3e3" stroke-width="1.51"/><path d="M634,-151L339,-111L534,59Z" fill="#e1e1e1" stroke="#e1e1e1" stroke-width="1.51"/><path d="M378,125L98,125L227,313Z" fill="#e5e5e5" stroke="#e5e5e5" stroke-width="1.51"/><path d="M1452,-328L1286,-353L1355,-20Z" fill="#7f7f7f" stroke="#7f7f7f" stroke-width="1.51"/><path d="M223,693L241,926L411,855Z" fill="#767676" stroke="#767676" stroke-width="1.51"/><path d="M369,1067L461,1201L641,940Z" fill="#5e5e5e" stroke="#5e5e5e" stroke-width="1.51"/><path d="M759,1193L651,1316L1099,1273Z" fill="#3f3f3f" stroke="#3f3f3f" stroke-width="1.51"/><path d="M103,1166L461,1201L369,1067Z" fill="#696969" stroke="#696969" stroke-width="1.51"/><path d="M-46,253L78,579L227,313Z" fill="#d2d2d2" stroke="#d2d2d2" stroke-width="1.51"/><path d="M227,313L78,579L395,532Z" fill="#bababa" stroke="#bababa" stroke-width="1.51"/><path d="M223,693L-38,873L241,926Z" fill="#7d7d7d" stroke="#7d7d7d" stroke-width="1.51"/><path d="M461,1201L651,1316L759,1193Z" fill="#525252" stroke="#525252" stroke-width="1.51"/><path d="M1551,-163L1452,-328L1355,-20Z" fill="#777777" stroke="#777777" stroke-width="1.51"/><path d="M1701,-374L1452,-328L1551,-163Z" fill="#777777" stroke="#777777" stroke-width="1.51"/><path d="M1099,1273L1335,1317L1339,947Z" fill="#171717" stroke="#171717" stroke-width="1.51"/><path d="M1471,1015L1795,1031L1743,733Z" fill="#000000" stroke="#000000" stroke-width="1.51"/><path d="M651,1316L1335,1317L1099,1273Z" fill="#2f2f2f" stroke="#2f2f2f" stroke-width="1.51"/><path d="M1335,1317L1417,1281L1339,947Z" fill="#0b0b0b" stroke="#0b0b0b" stroke-width="1.51"/><path d="M201,-134L98,125L378,125Z" fill="#f2f2f2" stroke="#f2f2f2" stroke-width="1.51"/><path d="M339,-111L201,-134L378,125Z" fill="#efefef" stroke="#efefef" stroke-width="1.51"/><path d="M843,-287L606,-429L634,-151Z" fill="#cccccc" stroke="#cccccc" stroke-width="1.51"/><path d="M1056,-322L606,-429L843,-287Z" fill="#bdbdbd" stroke="#bdbdbd" stroke-width="1.51"/><path d="M1286,-353L606,-429L1056,-322Z" fill="#aeaeae" stroke="#aeaeae" stroke-width="1.51"/><path d="M162,-315L201,-134L339,-111Z" fill="#f4f4f4" stroke="#f4f4f4" stroke-width="1.51"/><path d="M1681,1174L1795,1031L1471,1015Z" fill="#000000" stroke="#000000" stroke-width="1.51"/><path d="M1743,733L1795,1031L1761,352Z" fill="#252525" stroke="#252525" stroke-width="1.51"/><path d="M1417,1281L1681,1174L1471,1015Z" fill="#000000" stroke="#000000" stroke-width="1.51"/><path d="M1335,1317L1681,1174L1417,1281Z" fill="#000000" stroke="#000000" stroke-width="1.51"/><path d="M606,-429L433,-392L634,-151Z" fill="#dbdbdb" stroke="#dbdbdb" stroke-width="1.51"/><path d="M78,579L-51,637L223,693Z" fill="#a7a7a7" stroke="#a7a7a7" stroke-width="1.51"/><path d="M241,926L103,1166L369,1067Z" fill="#6d6d6d" stroke="#6d6d6d" stroke-width="1.51"/><path d="M-224,477L-51,637L78,579Z" fill="#b6b6b6" stroke="#b6b6b6" stroke-width="1.51"/><path d="M98,125L-46,253L227,313Z" fill="#e7e7e7" stroke="#e7e7e7" stroke-width="1.51"/><path d="M24,26L-46,253L98,125Z" fill="#f4f4f4" stroke="#f4f4f4" stroke-width="1.51"/><path d="M201,-134L24,26L98,125Z" fill="#fafafa" stroke="#fafafa" stroke-width="1.51"/><path d="M-80,-135L24,26L201,-134Z" fill="#fdfdfd" stroke="#fdfdfd" stroke-width="1.51"/><path d="M-51,637L-38,873L223,693Z" fill="#959595" stroke="#959595" stroke-width="1.51"/><path d="M1647,-49L1701,-374L1551,-163Z" fill="#777777" stroke="#777777" stroke-width="1.51"/><path d="M1452,-328L1701,-374L1286,-353Z" fill="#777777" stroke="#777777" stroke-width="1.51"/><path d="M1286,-353L1701,-374L606,-429Z" fill="#939393" stroke="#939393" stroke-width="1.51"/><path d="M1761,352L1701,-374L1681,149Z" fill="#747474" stroke="#747474" stroke-width="1.51"/><path d="M7,1099L103,1166L241,926Z" fill="#737373" stroke="#737373" stroke-width="1.51"/><path d="M461,1201L103,1166L651,1316Z" fill="#636363" stroke="#636363" stroke-width="1.51"/><path d="M433,-392L162,-315L339,-111Z" fill="#efefef" stroke="#efefef" stroke-width="1.51"/><path d="M-38,873L7,1099L241,926Z" fill="#747474" stroke="#747474" stroke-width="1.51"/><path d="M-247,1036L-83,1219L7,1099Z" fill="#777777" stroke="#777777" stroke-width="1.51"/><path d="M-51,637L-304,763L-38,873Z" fill="#909090" stroke="#909090" stroke-width="1.51"/><path d="M-46,253L-224,477L78,579Z" fill="#cccccc" stroke="#cccccc" stroke-width="1.51"/><path d="M-225,343L-224,477L-46,253Z" fill="#dadada" stroke="#dadada" stroke-width="1.51"/><path d="M-225,343L-46,253L-258,150Z" fill="#e9e9e9" stroke="#e9e9e9" stroke-width="1.51"/><path d="M-258,150L-46,253L24,26Z" fill="#f4f4f4" stroke="#f4f4f4" stroke-width="1.51"/><path d="M162,-315L-80,-135L201,-134Z" fill="#fbfbfb" stroke="#fbfbfb" stroke-width="1.51"/><path d="M-80,-135L-258,150L24,26Z" fill="#fefefe" stroke="#fefefe" stroke-width="1.51"/><path d="M-225,343L-304,763L-224,477Z" fill="#bcbcbc" stroke="#bcbcbc" stroke-width="1.51"/><path d="M-247,1036L7,1099L-38,873Z" fill="#777777" stroke="#777777" stroke-width="1.51"/><path d="M7,1099L-83,1219L103,1166Z" fill="#767676" stroke="#767676" stroke-width="1.51"/><path d="M103,1166L-83,1219L651,1316Z" fill="#6e6e6e" stroke="#6e6e6e" stroke-width="1.51"/><path d="M-224,477L-304,763L-51,637Z" fill="#acacac" stroke="#acacac" stroke-width="1.51"/><path d="M-258,150L-304,763L-225,343Z" fill="#cfcfcf" stroke="#cfcfcf" stroke-width="1.51"/><path d="M606,-429L-91,-336L433,-392Z" fill="#efefef" stroke="#efefef" stroke-width="1.51"/><path d="M433,-392L-91,-336L162,-315Z" fill="#f8f8f8" stroke="#f8f8f8" stroke-width="1.51"/><path d="M162,-315L-91,-336L-80,-135Z" fill="#ffffff" stroke="#ffffff" stroke-width="1.51"/><path d="M-80,-135L-345,-149L-258,150Z" fill="#ffffff" stroke="#ffffff" stroke-width="1.51"/><path d="M-304,763L-247,1036L-38,873Z" fill="#787878" stroke="#787878" stroke-width="1.51"/><path d="M-91,-336L-196,-276L-80,-135Z" fill="#ffffff" stroke="#ffffff" stroke-width="1.51"/><path d="M-304,763L-257,1226L-247,1036Z" fill="#777777" stroke="#777777" stroke-width="1.51"/><path d="M-247,1036L-257,1226L-83,1219Z" fill="#777777" stroke="#777777" stroke-width="1.51"/><path d="M-83,1219L-257,1226L651,1316Z" fill="#737373" stroke="#737373" stroke-width="1.51"/><path d="M-196,-276L-345,-149L-80,-135Z" fill="#ffffff" stroke="#ffffff" stroke-width="1.51"/><path d="M-258,150L-345,-149L-304,763Z" fill="#e8e8e8" stroke="#e8e8e8" stroke-width="1.51"/></svg>