<svg xmlns="http://www.w3.org/2000/svg" width="1440" height="900"><path d="M708,507L664,347L536,491Z" fill="#fd9963" stroke="#fd9963" stroke-width="1.51"/><path d="M664,347L589,315L536,491Z" fill="#fdab74" stroke="#fdab74" stroke-width="1.51"/><path d="M593,710L705,685L708,507Z" fill="#f07349" stroke="#f07349" stroke-width="1.51"/><path d="M536,491L593,710L708,507Z" fill="#f7875b" stroke="#f7875b" stroke-width="1.51"/><path d="M589,315L341,289L536,491Z" fill="#fdb982" stroke="#fdb982" stroke-width="1.51"/><path d="M783,145L545,176L589,315Z" fill="#febc87" stroke="#febc87" stroke-width="1.51"/><path d="M985,521L873,288L708,507Z" fill="#f78154" stroke="#f78154" stroke-width="1.51"/><path d="M708,507L873,288L664,347Z" fill="#fc9964" stroke="#fc9964" stroke-width="1.51"/><path d="M664,347L783,145L589,315Z" fill="#feb17b" stroke="#feb17b" stroke-width="1.51"/><path d="M545,176L341,289L589,315Z" fill="#fdc790" stroke="#fdc790" stroke-width="1.51"/><path d="M536,491L284,609L593,710Z" fill="#f58f62" stroke="#f58f62" stroke-width="1.51"/><path d="M873,288L783,145L664,347Z" fill="#fca874" stroke="#fca874" stroke-width="1.51"/><path d="M904,687L985,521L708,507Z" fill="#f06748" stroke="#f06748" stroke-width="1.51"/><path d="M705,685L904,687L708,507Z" fill="#ed6742" stroke="#ed6742" stroke-width="1.51"/><path d="M709,869L904,687L705,685Z" fill="#dd5430" stroke="#dd5430" stroke-width="1.51"/><path d="M341,289L284,609L536,491Z" fill="#fead78" stroke="#fead78" stroke-width="1.51"/><path d="M545,176L357,173L341,289Z" fill="#fdd19c" stroke="#fdd19c" stroke-width="1.51"/><path d="M341,289L139,338L284,609Z" fill="#ffbf8e" stroke="#ffbf8e" stroke-width="1.51"/><path d="M563,-54L357,173L545,176Z" fill="#ffd6ac" stroke="#ffd6ac" stroke-width="1.51"/><path d="M783,145L563,-54L545,176Z" fill="#ffc89e" stroke="#ffc89e" stroke-width="1.51"/><path d="M873,288L867,92L783,145Z" fill="#fca97e" stroke="#fca97e" stroke-width="1.51"/><path d="M1101,105L867,92L873,288Z" fill="#f99f77" stroke="#f99f77" stroke-width="1.51"/><path d="M593,710L709,869L705,685Z" fill="#df6137" stroke="#df6137" stroke-width="1.51"/><path d="M466,955L709,869L593,710Z" fill="#cd643b" stroke="#cd643b" stroke-width="1.51"/><path d="M284,609L305,755L593,710Z" fill="#ed8558" stroke="#ed8558" stroke-width="1.51"/><path d="M83,193L139,338L341,289Z" fill="#fed8ac" stroke="#fed8ac" stroke-width="1.51"/><path d="M284,609L169,688L305,755Z" fill="#f18e67" stroke="#f18e67" stroke-width="1.51"/><path d="M777,-79L563,-54L783,145Z" fill="#ffc3a2" stroke="#ffc3a2" stroke-width="1.51"/><path d="M357,173L83,193L341,289Z" fill="#fedaaa" stroke="#fedaaa" stroke-width="1.51"/><path d="M139,338L142,575L284,609Z" fill="#ffb189" stroke="#ffb189" stroke-width="1.51"/><path d="M985,521L1130,365L873,288Z" fill="#f17b50" stroke="#f17b50" stroke-width="1.51"/><path d="M1120,584L1130,365L985,521Z" fill="#e85c39" stroke="#e85c39" stroke-width="1.51"/><path d="M1075,738L1120,584L985,521Z" fill="#df442d" stroke="#df442d" stroke-width="1.51"/><path d="M1075,738L985,521L904,687Z" fill="#e1462f" stroke="#e1462f" stroke-width="1.51"/><path d="M142,575L169,688L284,609Z" fill="#f79c78" stroke="#f79c78" stroke-width="1.51"/><path d="M563,-54L300,28L357,173Z" fill="#ffdfb9" stroke="#ffdfb9" stroke-width="1.51"/><path d="M305,755L343,889L593,710Z" fill="#de794a" stroke="#de794a" stroke-width="1.51"/><path d="M180,928L343,889L305,755Z" fill="#ce7b55" stroke="#ce7b55" stroke-width="1.51"/><path d="M944,938L1075,738L904,687Z" fill="#cc321d" stroke="#cc321d" stroke-width="1.51"/><path d="M343,889L466,955L593,710Z" fill="#cd6f45" stroke="#cd6f45" stroke-width="1.51"/><path d="M867,92L777,-79L783,145Z" fill="#ffb694" stroke="#ffb694" stroke-width="1.51"/><path d="M944,-33L777,-79L867,92Z" fill="#ffb499" stroke="#ffb499" stroke-width="1.51"/><path d="M1065,-1L944,-33L867,92Z" fill="#fca78d" stroke="#fca78d" stroke-width="1.51"/><path d="M1130,365L1101,105L873,288Z" fill="#f28c5e" stroke="#f28c5e" stroke-width="1.51"/><path d="M709,869L944,938L904,687Z" fill="#c94227" stroke="#c94227" stroke-width="1.51"/><path d="M733,1142L944,938L709,869Z" fill="#ba4529" stroke="#ba4529" stroke-width="1.51"/><path d="M139,338L-79,609L142,575Z" fill="#ffb695" stroke="#ffb695" stroke-width="1.51"/><path d="M300,28L83,193L357,173Z" fill="#fee3bc" stroke="#fee3bc" stroke-width="1.51"/><path d="M1101,105L1065,-1L867,92Z" fill="#f99f80" stroke="#f99f80" stroke-width="1.51"/><path d="M954,-201L716,-229L777,-79Z" fill="#ffb89c" stroke="#ffb89c" stroke-width="1.51"/><path d="M466,955L541,1092L709,869Z" fill="#bf623c" stroke="#bf623c" stroke-width="1.51"/><path d="M292,1163L541,1092L466,955Z" fill="#c16e46" stroke="#c16e46" stroke-width="1.51"/><path d="M343,889L292,1163L466,955Z" fill="#c2724b" stroke="#c2724b" stroke-width="1.51"/><path d="M169,688L180,928L305,755Z" fill="#e1845d" stroke="#e1845d" stroke-width="1.51"/><path d="M-30,961L180,928L169,688Z" fill="#d28366" stroke="#d28366" stroke-width="1.51"/><path d="M-79,609L169,688L142,575Z" fill="#f9a183" stroke="#f9a183" stroke-width="1.51"/><path d="M944,938L1044,968L1075,738Z" fill="#b22617" stroke="#b22617" stroke-width="1.51"/><path d="M1328,754L1337,564L1120,584Z" fill="#ca2c18" stroke="#ca2c18" stroke-width="1.51"/><path d="M939,1109L1044,968L944,938Z" fill="#b12d1c" stroke="#b12d1c" stroke-width="1.51"/><path d="M278,-207L191,-96L300,28Z" fill="#ffebd1" stroke="#ffebd1" stroke-width="1.51"/><path d="M777,-79L716,-229L563,-54Z" fill="#ffc7a5" stroke="#ffc7a5" stroke-width="1.51"/><path d="M954,-201L777,-79L944,-33Z" fill="#ffb198" stroke="#ffb198" stroke-width="1.51"/><path d="M83,193L-3,189L139,338Z" fill="#ffe1bb" stroke="#ffe1bb" stroke-width="1.51"/><path d="M0,15L-3,189L83,193Z" fill="#ffecd4" stroke="#ffecd4" stroke-width="1.51"/><path d="M0,15L83,193L300,28Z" fill="#ffecd3" stroke="#ffecd3" stroke-width="1.51"/><path d="M278,-207L300,28L563,-54Z" fill="#ffe4c3" stroke="#ffe4c3" stroke-width="1.51"/><path d="M541,1092L733,1142L709,869Z" fill="#be5632" stroke="#be5632" stroke-width="1.51"/><path d="M1328,754L1120,584L1075,738Z" fill="#cb2415" stroke="#cb2415" stroke-width="1.51"/><path d="M1120,584L1337,564L1130,365Z" fill="#dc502e" stroke="#dc502e" stroke-width="1.51"/><path d="M1130,365L1340,288L1101,105Z" fill="#e57e50" stroke="#e57e50" stroke-width="1.51"/><path d="M1101,105L1301,109L1065,-1Z" fill="#ee9170" stroke="#ee9170" stroke-width="1.51"/><path d="M1065,-1L954,-201L944,-33Z" fill="#fca58c" stroke="#fca58c" stroke-width="1.51"/><path d="M-102,304L-79,609L139,338Z" fill="#ffc9a7" stroke="#ffc9a7" stroke-width="1.51"/><path d="M1337,564L1340,288L1130,365Z" fill="#d95f35" stroke="#d95f35" stroke-width="1.51"/><path d="M1065,-1L1076,-293L954,-201Z" fill="#faa087" stroke="#faa087" stroke-width="1.51"/><path d="M733,1142L939,1109L944,938Z" fill="#b73c26" stroke="#b73c26" stroke-width="1.51"/><path d="M488,-291L278,-207L563,-54Z" fill="#ffdfbf" stroke="#ffdfbf" stroke-width="1.51"/><path d="M-3,189L-102,304L139,338Z" fill="#ffdfbe" stroke="#ffdfbe" stroke-width="1.51"/><path d="M-211,133L-102,304L-3,189Z" fill="#ffe7c8" stroke="#ffe7c8" stroke-width="1.51"/><path d="M716,-229L488,-291L563,-54Z" fill="#ffd3b1" stroke="#ffd3b1" stroke-width="1.51"/><path d="M1076,-293L488,-291L716,-229Z" fill="#ffbe9f" stroke="#ffbe9f" stroke-width="1.51"/><path d="M1340,288L1301,109L1101,105Z" fill="#e28258" stroke="#e28258" stroke-width="1.51"/><path d="M191,-96L0,15L300,28Z" fill="#fff0db" stroke="#fff0db" stroke-width="1.51"/><path d="M-59,-187L0,15L191,-96Z" fill="#fff5e7" stroke="#fff5e7" stroke-width="1.51"/><path d="M1317,982L1075,738L1044,968Z" fill="#a5120b" stroke="#a5120b" stroke-width="1.51"/><path d="M1317,982L1328,754L1075,738Z" fill="#ac0402" stroke="#ac0402" stroke-width="1.51"/><path d="M180,928L292,1163L343,889Z" fill="#c47855" stroke="#c47855" stroke-width="1.51"/><path d="M541,1092L292,1163L733,1142Z" fill="#c06841" stroke="#c06841" stroke-width="1.51"/><path d="M93,1085L292,1163L180,928Z" fill="#c57c5e" stroke="#c57c5e" stroke-width="1.51"/><path d="M-79,609L-115,794L169,688Z" fill="#f4987e" stroke="#f4987e" stroke-width="1.51"/><path d="M-260,708L-115,794L-79,609Z" fill="#f3977d" stroke="#f3977d" stroke-width="1.51"/><path d="M-30,961L93,1085L180,928Z" fill="#c78068" stroke="#c78068" stroke-width="1.51"/><path d="M-115,794L-30,961L169,688Z" fill="#df8a70" stroke="#df8a70" stroke-width="1.51"/><path d="M1564,178L1343,-4L1301,109Z" fill="#cb7f62" stroke="#cb7f62" stroke-width="1.51"/><path d="M1301,109L1343,-4L1065,-1Z" fill="#e78c6f" stroke="#e78c6f" stroke-width="1.51"/><path d="M1340,288L1564,178L1301,109Z" fill="#c97851" stroke="#c97851" stroke-width="1.51"/><path d="M1337,564L1470,393L1340,288Z" fill="#c75832" stroke="#c75832" stroke-width="1.51"/><path d="M1563,482L1470,393L1337,564Z" fill="#bb4929" stroke="#bb4929" stroke-width="1.51"/><path d="M954,-201L1076,-293L716,-229Z" fill="#ffae95" stroke="#ffae95" stroke-width="1.51"/><path d="M1292,-306L1076,-293L1065,-1Z" fill="#f1967b" stroke="#f1967b" stroke-width="1.51"/><path d="M939,1109L1055,1201L1044,968Z" fill="#ae2718" stroke="#ae2718" stroke-width="1.51"/><path d="M733,1142L1055,1201L939,1109Z" fill="#b53723" stroke="#b53723" stroke-width="1.51"/><path d="M292,1163L1055,1201L733,1142Z" fill="#be522e" stroke="#be522e" stroke-width="1.51"/><path d="M-242,368L-242,513L-102,304Z" fill="#ffcdac" stroke="#ffcdac" stroke-width="1.51"/><path d="M-102,304L-242,513L-79,609Z" fill="#ffbe9f" stroke="#ffbe9f" stroke-width="1.51"/><path d="M-211,133L-242,368L-102,304Z" fill="#ffe0c0" stroke="#ffe0c0" stroke-width="1.51"/><path d="M1302,1075L1317,982L1044,968Z" fill="#9c0604" stroke="#9c0604" stroke-width="1.51"/><path d="M1520,737L1563,482L1337,564Z" fill="#b2311e" stroke="#b2311e" stroke-width="1.51"/><path d="M-196,924L-30,961L-115,794Z" fill="#ca846f" stroke="#ca846f" stroke-width="1.51"/><path d="M-234,1069L-1,1071L-30,961Z" fill="#c8836f" stroke="#c8836f" stroke-width="1.51"/><path d="M-30,961L-1,1071L93,1085Z" fill="#c8826d" stroke="#c8826d" stroke-width="1.51"/><path d="M93,1085L-1,1071L292,1163Z" fill="#c67e63" stroke="#c67e63" stroke-width="1.51"/><path d="M-203,-21L-211,133L0,15Z" fill="#fff4e5" stroke="#fff4e5" stroke-width="1.51"/><path d="M0,15L-211,133L-3,189Z" fill="#ffefda" stroke="#ffefda" stroke-width="1.51"/><path d="M278,-207L121,-295L191,-96Z" fill="#ffeed8" stroke="#ffeed8" stroke-width="1.51"/><path d="M488,-291L121,-295L278,-207Z" fill="#ffe9cc" stroke="#ffe9cc" stroke-width="1.51"/><path d="M1292,-306L121,-295L488,-291Z" fill="#ffcdab" stroke="#ffcdab" stroke-width="1.51"/><path d="M1055,1201L1302,1075L1044,968Z" fill="#a5130c" stroke="#a5130c" stroke-width="1.51"/><path d="M1520,737L1337,564L1328,754Z" fill="#af190f" stroke="#af190f" stroke-width="1.51"/><path d="M-242,513L-260,708L-79,609Z" fill="#fca78e" stroke="#fca78e" stroke-width="1.51"/><path d="M-242,368L-260,708L-242,513Z" fill="#ffb59a" stroke="#ffb59a" stroke-width="1.51"/><path d="M121,-295L-59,-187L191,-96Z" fill="#fff3e3" stroke="#fff3e3" stroke-width="1.51"/><path d="M1520,737L1328,754L1486,975Z" fill="#910001" stroke="#910001" stroke-width="1.51"/><path d="M1470,393L1564,178L1340,288Z" fill="#c16c45" stroke="#c16c45" stroke-width="1.51"/><path d="M1486,975L1328,754L1317,982Z" fill="#880001" stroke="#880001" stroke-width="1.51"/><path d="M-59,-187L-203,-21L0,15Z" fill="#fff7ec" stroke="#fff7ec" stroke-width="1.51"/><path d="M-211,133L-203,-21L-242,368Z" fill="#ffebd1" stroke="#ffebd1" stroke-width="1.51"/><path d="M-260,708L-196,924L-115,794Z" fill="#e18b71" stroke="#e18b71" stroke-width="1.51"/><path d="M1343,-4L1292,-306L1065,-1Z" fill="#e88f74" stroke="#e88f74" stroke-width="1.51"/><path d="M1737,361L1564,178L1470,393Z" fill="#c06942" stroke="#c06942" stroke-width="1.51"/><path d="M1564,178L1471,-83L1343,-4Z" fill="#c8816a" stroke="#c8816a" stroke-width="1.51"/><path d="M1076,-293L1292,-306L488,-291Z" fill="#fdaa90" stroke="#fdaa90" stroke-width="1.51"/><path d="M1471,-83L1292,-306L1343,-4Z" fill="#d48770" stroke="#d48770" stroke-width="1.51"/><path d="M1445,1072L1486,975L1317,982Z" fill="#820000" stroke="#820000" stroke-width="1.51"/><path d="M1520,737L1704,673L1563,482Z" fill="#af2718" stroke="#af2718" stroke-width="1.51"/><path d="M1302,1075L1445,1072L1317,982Z" fill="#8b0001" stroke="#8b0001" stroke-width="1.51"/><path d="M1055,1201L1445,1072L1302,1075Z" fill="#980001" stroke="#980001" stroke-width="1.51"/><path d="M-1,1071L-234,1069L292,1163Z" fill="#c8826d" stroke="#c8826d" stroke-width="1.51"/><path d="M-196,924L-234,1069L-30,961Z" fill="#c8836f" stroke="#c8836f" stroke-width="1.51"/><path d="M-260,708L-234,1069L-196,924Z" fill="#c8836f" stroke="#c8836f" stroke-width="1.51"/><path d="M-59,-187L-207,-239L-203,-21Z" fill="#fff7ec" stroke="#fff7ec" stroke-width="1.51"/><path d="M-203,-21L-207,-239L-242,368Z" fill="#fff4e6" stroke="#fff4e6" stroke-width="1.51"/><path d="M121,-295L-207,-239L-59,-187Z" fill="#fff7ec" stroke="#fff7ec" stroke-width="1.51"/><path d="M1679,985L1704,673L1520,737Z" fill="#960001" stroke="#960001" stroke-width="1.51"/><path d="M1563,482L1737,361L1470,393Z" fill="#be5732" stroke="#be5732" stroke-width="1.51"/><path d="M1679,985L1520,737L1486,975Z" fill="#7f0000" stroke="#7f0000" stroke-width="1.51"/><path d="M1704,673L1732,543L1563,482Z" fill="#b53824" stroke="#b53824" stroke-width="1.51"/><path d="M1564,178L1745,-21L1471,-83Z" fill="#c8826b" stroke="#c8826b" stroke-width="1.51"/><path d="M1732,543L1737,361L1563,482Z" fill="#bc4c2b" stroke="#bc4c2b" stroke-width="1.51"/><path d="M1737,361L1739,149L1564,178Z" fill="#c2724b" stroke="#c2724b" stroke-width="1.51"/><path d="M1471,-83L1574,-260L1292,-306Z" fill="#c8836f" stroke="#c8836f" stroke-width="1.51"/><path d="M1745,-21L1574,-260L1471,-83Z" fill="#c8836f" stroke="#c8836f" stroke-width="1.51"/><path d="M1445,1072L1679,985L1486,975Z" fill="#7f0000" stroke="#7f0000" stroke-width="1.51"/><path d="M1704,673L1755,1085L1732,543Z" fill="#9c0504" stroke="#9c0504" stroke-width="1.51"/><path d="M1739,149L1745,-21L1564,178Z" fill="#c57d60" stroke="#c57d60" stroke-width="1.51"/><path d="M1770,-253L1745,-21L1739,149Z" fill="#c8836f" stroke="#c8836f" stroke-width="1.51"/><path d="M1679,985L1755,1085L1704,673Z" fill="#7f0000" stroke="#7f0000" stroke-width="1.51"/><path d="M1732,543L1755,1085L1737,361Z" fill="#ab1e12" stroke="#ab1e12" stroke-width="1.51"/><path d="M1737,361L1770,-253L1739,149Z" fill="#c67e63" stroke="#c67e63" stroke-width="1.51"/><path d="M1445,1072L1755,1085L1679,985Z" fill="#7f0000" stroke="#7f0000" stroke-width="1.51"/><path d="M1055,1201L1755,1085L1445,1072Z" fill="#820000" stroke="#820000" stroke-width="1.51"/><path d="M1755,1085L1770,-253L1737,361Z" fill="#be5a35" stroke="#be5a35" stroke-width="1.51"/><path d="M1745,-21L1770,-253L1574,-260Z" fill="#c8836f" stroke="#c8836f" stroke-width="1.51"/><path d="M1574,-260L1770,-253L1292,-306Z" fill="#c8836f" stroke="#c8836f" stroke-width="1.51"/></svg>